<?xml version="1.0" encoding="UTF-8" standalone="no"?>
<svg
   xmlns:dc="http://purl.org/dc/elements/1.1/"
   xmlns:cc="http://creativecommons.org/ns#"
   xmlns:rdf="http://www.w3.org/1999/02/22-rdf-syntax-ns#"
   xmlns:svg="http://www.w3.org/2000/svg"
   xmlns="http://www.w3.org/2000/svg"
   id="svg8"
   version="1.1"
   viewBox="0 0 29.104164 10.583333"
   height="40"
   width="110">
  <defs
     id="defs2" />
  <metadata
     id="metadata5">
    <rdf:RDF>
      <cc:Work
         rdf:about="">
        <dc:format>image/svg+xml</dc:format>
        <dc:type
           rdf:resource="http://purl.org/dc/dcmitype/StillImage" />
        <dc:title></dc:title>
      </cc:Work>
    </rdf:RDF>
  </metadata>
  <g
     transform="translate(-73.363706,-57.768038)"
     id="layer1">
    <g
       transform="matrix(1.4589835,0,0,1.4589835,-35.119865,-30.454184)"
       id="text817"
       style="font-style:normal;font-variant:normal;font-weight:normal;font-stretch:normal;font-size:10.58333302px;line-height:125%;font-family:'Latin Modern Roman Unslanted';-inkscape-font-specification:'Latin Modern Roman Unslanted, Normal';font-variant-ligatures:normal;font-variant-caps:normal;font-variant-numeric:normal;font-feature-settings:normal;text-align:start;letter-spacing:0px;word-spacing:0px;writing-mode:lr-tb;text-anchor:start;fill:#000053;fill-opacity:1;stroke:none;stroke-width:0.18134771px;stroke-linecap:butt;stroke-linejoin:miter;stroke-opacity:1"
       aria-label="swn">
      <path
         id="path819"
         style="font-style:normal;font-variant:normal;font-weight:normal;font-stretch:normal;font-size:10.58333302px;font-family:'Latin Modern Roman Unslanted';-inkscape-font-specification:'Latin Modern Roman Unslanted, Normal';font-variant-ligatures:normal;font-variant-caps:normal;font-variant-numeric:normal;font-feature-settings:normal;text-align:start;writing-mode:lr-tb;text-anchor:start;fill:#000053;fill-opacity:1;stroke-width:0.18134771px"
         d="m 78.866621,64.594537 c -0.243416,-0.941917 -1.227666,-1.132417 -1.608666,-1.2065 -0.486834,-0.09525 -0.878417,-0.169333 -0.98425,-0.60325 -0.07408,-0.296333 0.04233,-0.910167 0.878416,-0.910167 0.338667,0 0.73025,0.116417 0.941917,0.4445 -0.34925,0.09525 -0.264583,0.433917 -0.264583,0.433917 0.05292,0.1905 0.232833,0.3175 0.41275,0.3175 0.04233,0 0.47625,0 0.328083,-0.582083 -0.15875,-0.624417 -0.867833,-0.910167 -1.481667,-0.910167 -1.439333,0 -1.49225,1.153583 -1.386416,1.55575 0.0635,0.275167 0.254,0.5715 0.529166,0.751417 0.28575,0.201083 0.41275,0.22225 1.0795,0.359833 0.243417,0.04233 0.836084,0.15875 0.973667,0.6985 0.08467,0.3175 0.01058,1.11125 -1.17475,1.11125 -0.22225,0 -0.867833,-0.03175 -1.2065,-0.518584 0.455083,-0.08467 0.34925,-0.486833 0.34925,-0.518583 -0.05292,-0.201083 -0.243417,-0.34925 -0.465667,-0.34925 -0.28575,0 -0.508,0.211667 -0.391583,0.656167 0.148167,0.592666 0.846667,1.026583 1.788583,1.026583 1.68275,0 1.80975,-1.248833 1.68275,-1.756833 z" />
      <path
         id="path821"
         style="font-style:normal;font-variant:normal;font-weight:normal;font-stretch:normal;font-size:10.58333302px;font-family:'Latin Modern Roman Unslanted';-inkscape-font-specification:'Latin Modern Roman Unslanted, Normal';font-variant-ligatures:normal;font-variant-caps:normal;font-variant-numeric:normal;font-feature-settings:normal;text-align:start;writing-mode:lr-tb;text-anchor:start;fill:#000053;fill-opacity:1;stroke-width:0.18134771px"
         d="m 86.426924,62.35087 c -0.169333,-0.66675 -0.518583,-0.772583 -0.677333,-0.772583 -0.22225,0 -0.465667,0.211667 -0.391583,0.508 0.03175,0.148167 0.127,0.22225 0.211666,0.28575 0.264584,0.22225 0.41275,0.518583 0.486834,0.804333 0.105833,0.41275 0.05292,1.49225 -0.03175,1.915584 -0.09525,0.539749 -0.328084,0.963083 -0.85725,0.963083 -0.762,0 -0.941917,-0.719667 -0.98425,-0.889 -0.07408,-0.28575 -0.07408,-0.433917 -0.07408,-1.058333 V 63.038787 62.44612 c 0,-0.148166 0,-0.423333 -0.01058,-0.455083 -0.05292,-0.201083 -0.232833,-0.306917 -0.402167,-0.306917 -0.338666,0 -0.338666,0.328084 -0.338666,0.423334 v 2.307166 c 0,0.296334 0.01058,0.306917 0.0635,0.560917 0.05292,0.275167 -0.05292,0.560916 -0.127,0.709083 -0.127,0.254 -0.296334,0.370417 -0.550334,0.370417 -0.433916,0 -0.878416,-0.22225 -1.058333,-0.92075 -0.137583,-0.550333 -0.04233,-1.354667 0.04233,-2.032 0.05292,-0.34925 0.0635,-0.433917 0.01058,-0.645583 -0.148167,-0.582084 -0.656167,-0.878417 -1.11125,-0.878417 -1.026584,0 -1.090084,1.481667 -1.058334,1.61925 0.03175,0.137583 0.179917,0.137583 0.243417,0.137583 0.169333,0 0.169333,-0.03175 0.169333,-0.22225 0.02117,-0.656166 0.232834,-1.23825 0.6985,-1.23825 0.1905,0 0.275167,0.137584 0.3175,0.328084 0.0635,0.243416 0.03175,0.465666 0,0.709083 -0.15875,1.248833 -0.15875,1.640417 -0.05292,2.0955 0.306916,1.17475 1.322916,1.344083 1.852083,1.344083 0.306917,0 0.687917,-0.0635 0.941917,-0.656167 0.4445,0.5715 1.132416,0.656167 1.4605,0.656167 0.635,0 1.037166,-0.370417 1.206499,-1.23825 0.15875,-0.73025 0.169334,-2.19075 0.02117,-2.76225 z" />
      <path
         id="path823"
         style="font-style:normal;font-variant:normal;font-weight:normal;font-stretch:normal;font-size:10.58333302px;font-family:'Latin Modern Roman Unslanted';-inkscape-font-specification:'Latin Modern Roman Unslanted, Normal';font-variant-ligatures:normal;font-variant-caps:normal;font-variant-numeric:normal;font-feature-settings:normal;text-align:start;writing-mode:lr-tb;text-anchor:start;fill:#000053;fill-opacity:1;stroke-width:0.18134771px"
         d="m 93.492953,64.73212 c -0.04233,-0.137583 -0.1905,-0.137583 -0.243417,-0.137583 -0.169333,0 -0.169333,0.04233 -0.179916,0.22225 -0.02117,0.677333 -0.232834,1.23825 -0.687917,1.23825 -0.211666,0 -0.275166,-0.148167 -0.328083,-0.338667 -0.0635,-0.243417 -0.03175,-0.465666 -0.01058,-0.677333 0.07408,-0.560917 0.22225,-1.703917 0.07408,-2.31775 -0.232833,-0.910167 -0.92075,-1.143 -1.513417,-1.143 -0.910166,0 -1.259416,0.60325 -1.407583,0.846667 -0.1905,-0.486834 -0.677333,-0.846667 -1.195917,-0.846667 -0.370416,0 -0.5715,0.201083 -0.6985,0.5715 -0.09525,0.359833 -0.09525,0.994833 -0.08467,1.04775 0.03175,0.137583 0.179916,0.137583 0.243416,0.137583 0.169334,0 0.169334,-0.03175 0.169334,-0.28575 0,-0.624416 0.05292,-1.17475 0.423333,-1.17475 0.296333,0 0.391583,0.370417 0.41275,0.465667 0.04233,0.148167 0.0635,0.3175 0.05292,0.465667 v 3.090333 c 0.01058,0.09525 0,0.127 0.01058,0.15875 0.04233,0.169333 0.211667,0.296333 0.402167,0.296333 0.338666,0 0.338666,-0.254 0.338666,-0.656167 v -0.910166 c 0,-0.22225 -0.01058,-0.243417 0,-0.687917 v -0.687916 c 0.01058,-0.169334 0.179917,-0.79375 0.433917,-1.100667 0.264583,-0.28575 0.560917,-0.433917 0.941917,-0.433917 0.41275,0 0.624416,0.296334 0.719666,0.6985 0.15875,0.613834 0.01058,1.820334 -0.05292,2.3495 -0.03175,0.1905 -0.05292,0.359833 0,0.550333 0.116416,0.486834 0.5715,0.878417 1.121833,0.878417 1.016,0 1.090083,-1.471083 1.058333,-1.61925 z" />
    </g>
  </g>
</svg>
